<svg data-v-fde0c5aa="" xmlns="http://www.w3.org/2000/svg" viewBox="0 0 300 300" class="icon"><!----><defs data-v-fde0c5aa=""><!----></defs>
<!----><defs data-v-fde0c5aa=""><linearGradient data-v-fde0c5aa="" gradientTransform="rotate(25)" id="91fc718b-511e-4648-ad7e-42c7481db5a4" x1="0%" y1="0%" x2="100%" y2="0%"><stop data-v-fde0c5aa="" offset="0%" stop-color="#A92580" stop-opacity="1"></stop><stop data-v-fde0c5aa="" offset="100%" stop-color="#F7BC00" stop-opacity="1"></stop></linearGradient></defs><g data-v-fde0c5aa="" id="6f7462d5-e4ec-4f76-b86a-8281b45f7bef" fill="url(#91fc718b-511e-4648-ad7e-42c7481db5a4)" stroke="none" transform="matrix(2.29645086630259,0,0,2.29645086630259,36.09603341778227,-13.39247388127039)"><path d="M95.5 72.4c-2.4 11.1-20.3 23-45 23-17.5 0-32.5-5.6-38.7-14.1 7.7 7.4 21.7 12.1 37.8 12.1 24.2 0 43.9-11.1 43.9-24.9v-.3-.2c-.1-5-2.5-10-7.8-14v.1c-.9-.8-2-1.5-3.2-2.2.9-.2 2-.1 3 .3 5.6 2.4 7.3-.8 7.4-1l-1.8-.9c0 .1-1 1.7-4.7.1-2.6-1.1-5.5-.6-7 1.3-.9 1.1-1.1 2.5-.8 4.1-1.8-.9-3.6-1.5-4.9-1.7l-.4 2c2.2.5 5.6 1.8 7.2 3.5.6.9.6 1.7.2 2.5-1 2-4.5 4-9.3 5.6 2-1.6 3.2-3.6 3.2-5.6h-2.1c0 4-5.9 7.2-14.1 8.5-1.4.2-2.9.4-4.4.5-1.2.1-2.3.1-3.5.1-11.9 0-22-4.1-22-9.1h-2.1c0 5.3 6.9 9.4 16.8 10.8 1.3.2 6 .4 7.2.4 4.7 0 9-.6 12.6-1.6 9.4-1.7 17.5-4.8 19.4-8.7.6-1.2.8-2.5.3-3.7 0-.1-.1-.1-.1-.2-.1-.3-.3-.6-.5-.9-1.5-1.9-1.9-3.6-1.3-4.8 4.3 2.3 6.9 5 6.9 7.9 0 7.6-17.5 14-38.3 14.1-14.1-.1-23-2.6-26.5-7.2-1.7-2.2-1.9-4.9-1-8.3l-2-.6c-1.1 3.9-.7 7.3 1.4 10.1.7.9 1.6 1.8 2.7 2.6-2.2-.7-4.2-1.5-6-2.3-2.4-1.3-3.8-4.2-3.8-5.9 0-4.3 3.6-7.5 11.2-9.9l-.6-2c-8.6 2.8-12.7 6.5-12.7 11.9 0 .8.2 1.6.5 2.5C11 64.7 10 63 10 61.2c0-7.7 17.8-14.1 38.8-14.1 11.1 0 22.3 1.9 29.5 4.7 0 0 .2-.4.6-.9.3-.4.7-.8.7-.8-7.5-3-18.9-5.1-30.8-5.1C25.9 45 8 52.2 8 61.2c0 9.1 17.9 16.2 40.8 16.2 16.3 0 30.2-3.6 36.8-9C81 74.9 67 80.1 51 80.1v2.1c21 0 38-8 38.2-18.2.3-.8.5-1.7.5-2.5 1.2 2.1 1.8 4.3 1.9 6.9C91.5 78.5 72 87 50 87v2c13 0 25.5-2.6 33.4-7-7.6 5.6-20 9.3-33.8 9.3-18.3 0-33.9-6.1-39.7-15.3 5.8 6 15.9 8.9 25.9 11l.4-2C15.4 80.7 7 74.5 7 63.6c0-7.9-4.8-8.7-5-8.8l-.3 2c.1 0 3.2.7 3.2 6.7 0 1.9.3 3.6.7 5.2.1 1.8.4 3.5 1.1 5.2 1.5 13.5 20.6 23.4 43.8 23.4 26 0 44.3-12.5 47-24.7l-2-.2z"></path></g><!----></svg>
