<svg data-v-423bf9ae="" xmlns="http://www.w3.org/2000/svg" viewBox="0 0 513 90" class="iconLeft"><!----><!----><!----><g data-v-423bf9ae="" id="19849b85-8230-4fdb-9744-fe0ca454065d" fill="black" transform="matrix(5.469462036417144,0,0,5.469462036417144,182.1765804222555,-5.45578639943092)"><path d="M4.40 14.55L4.40 5.10L6.99 5.10L6.99 3.88L0.49 3.88L0.49 5.10L3.07 5.10L3.07 14.55ZM7.55 6.24L7.55 14.55L8.83 14.55L8.83 9.38C8.83 8.02 9.65 7.41 10.67 7.41C10.88 7.41 11.03 7.42 11.19 7.45L11.19 6.12C11.07 6.10 10.92 6.09 10.78 6.09C9.86 6.09 9.11 6.62 8.78 7.22L8.67 6.24ZM16.65 14.55L17.79 14.55L17.79 8.83C17.79 6.79 16.80 6.08 15.11 6.08C13.22 6.08 12.31 6.90 12.31 8.79L13.48 8.79C13.48 7.53 14.04 7.14 15.05 7.14C16.10 7.14 16.56 7.67 16.56 8.90L16.56 9.93C16.17 9.87 15.60 9.83 15.22 9.83C12.99 9.83 12.05 10.64 12.05 12.38C12.05 13.94 12.99 14.71 14.49 14.71C15.37 14.71 16.16 14.43 16.60 13.78ZM16.56 11.80C16.56 13.03 15.72 13.65 14.77 13.65C13.82 13.65 13.34 13.19 13.34 12.26C13.34 11.28 13.85 10.81 15.26 10.81C15.60 10.81 16.18 10.85 16.56 10.91ZM23.95 11.84L23.95 11.96C23.95 12.98 23.56 13.58 22.34 13.58C21.11 13.58 20.72 12.95 20.72 11.51L20.72 9.24C20.72 7.76 21.17 7.22 22.37 7.22C23.55 7.22 23.93 7.77 23.93 8.78L23.93 8.90L25.17 8.90L25.17 8.76C25.17 6.99 24.35 6.08 22.37 6.08C20.41 6.08 19.43 6.97 19.43 9.25L19.43 11.51C19.43 13.80 20.36 14.71 22.33 14.71C24.36 14.71 25.20 13.76 25.20 11.94L25.20 11.84ZM32.84 6.24L31.29 6.24L28.94 9.51L28.14 9.51L28.14 3.74L26.85 3.74L26.85 14.55L28.14 14.55L28.14 10.65L28.94 10.65L31.65 14.55L33.26 14.55L30.00 10.02ZM34.52 3.88L34.52 14.55L35.84 14.55L35.84 6.45L39.69 14.55L41.08 14.55L41.08 3.88L39.76 3.88L39.76 12.08L35.94 3.88ZM47.32 12.22C47.29 13.17 46.90 13.61 45.77 13.61C44.56 13.61 44.14 13.03 44.14 11.63L44.14 10.71L48.59 10.71L48.59 9.17C48.59 7.04 47.71 6.08 45.75 6.08C43.82 6.08 42.87 7.08 42.87 9.24L42.87 11.54C42.87 13.82 43.78 14.71 45.78 14.71C47.70 14.71 48.48 13.87 48.52 12.22ZM45.77 7.20C46.98 7.20 47.36 7.87 47.36 9.23L47.36 9.69L44.14 9.69L44.14 9.30C44.14 7.80 44.56 7.20 45.77 7.20ZM52.91 9.67C51.80 9.48 51.34 9.23 51.34 8.32C51.34 7.62 51.77 7.18 52.81 7.18C53.91 7.18 54.32 7.63 54.35 8.47L55.55 8.47C55.55 6.93 54.71 6.08 52.84 6.08C51.06 6.08 50.08 6.96 50.08 8.37C50.08 10.07 51.09 10.53 52.58 10.78C53.73 10.98 54.38 11.24 54.38 12.28C54.38 13.17 53.84 13.61 52.81 13.61C51.59 13.61 51.13 13.10 51.13 12.21L49.90 12.21C49.90 13.85 50.83 14.71 52.75 14.71C54.64 14.71 55.68 13.79 55.68 12.19C55.68 10.35 54.32 9.91 52.91 9.67ZM59.68 13.54C58.80 13.54 58.44 13.22 58.44 12.00L58.44 7.66L60.34 7.66L60.34 6.52L58.45 6.52L58.45 4.58L57.13 4.58L57.13 11.96C57.13 13.83 57.68 14.71 59.40 14.71C59.78 14.71 60.17 14.66 60.34 14.62L60.34 13.47C60.16 13.51 59.92 13.54 59.68 13.54Z"></path></g><!----><g data-v-423bf9ae="" id="63607b2b-f57e-4f87-9f30-0c77cea71c4c" transform="matrix(1.720841450810459,0,0,1.720841450810459,-2.6537386203668376,-77.43786528647065)" stroke="none" fill="black"><path d="M95.5 72.4c-2.4 11.1-20.3 23-45 23-17.5 0-32.5-5.6-38.7-14.1 7.7 7.4 21.7 12.1 37.8 12.1 24.2 0 43.9-11.1 43.9-24.9v-.3-.2c-.1-5-2.5-10-7.8-14v.1c-.9-.8-2-1.5-3.2-2.2.9-.2 2-.1 3 .3 5.6 2.4 7.3-.8 7.4-1l-1.8-.9c0 .1-1 1.7-4.7.1-2.6-1.1-5.5-.6-7 1.3-.9 1.1-1.1 2.5-.8 4.1-1.8-.9-3.6-1.5-4.9-1.7l-.4 2c2.2.5 5.6 1.8 7.2 3.5.6.9.6 1.7.2 2.5-1 2-4.5 4-9.3 5.6 2-1.6 3.2-3.6 3.2-5.6h-2.1c0 4-5.9 7.2-14.1 8.5-1.4.2-2.9.4-4.4.5-1.2.1-2.3.1-3.5.1-11.9 0-22-4.1-22-9.1h-2.1c0 5.3 6.9 9.4 16.8 10.8 1.3.2 6 .4 7.2.4 4.7 0 9-.6 12.6-1.6 9.4-1.7 17.5-4.8 19.4-8.7.6-1.2.8-2.5.3-3.7 0-.1-.1-.1-.1-.2-.1-.3-.3-.6-.5-.9-1.5-1.9-1.9-3.6-1.3-4.8 4.3 2.3 6.9 5 6.9 7.9 0 7.6-17.5 14-38.3 14.1-14.1-.1-23-2.6-26.5-7.2-1.7-2.2-1.9-4.9-1-8.3l-2-.6c-1.1 3.9-.7 7.3 1.4 10.1.7.9 1.6 1.8 2.7 2.6-2.2-.7-4.2-1.5-6-2.3-2.4-1.3-3.8-4.2-3.8-5.9 0-4.3 3.6-7.5 11.2-9.9l-.6-2c-8.6 2.8-12.7 6.5-12.7 11.9 0 .8.2 1.6.5 2.5C11 64.7 10 63 10 61.2c0-7.7 17.8-14.1 38.8-14.1 11.1 0 22.3 1.9 29.5 4.7 0 0 .2-.4.6-.9.3-.4.7-.8.7-.8-7.5-3-18.9-5.1-30.8-5.1C25.9 45 8 52.2 8 61.2c0 9.1 17.9 16.2 40.8 16.2 16.3 0 30.2-3.6 36.8-9C81 74.9 67 80.1 51 80.1v2.1c21 0 38-8 38.2-18.2.3-.8.5-1.7.5-2.5 1.2 2.1 1.8 4.3 1.9 6.9C91.5 78.5 72 87 50 87v2c13 0 25.5-2.6 33.4-7-7.6 5.6-20 9.3-33.8 9.3-18.3 0-33.9-6.1-39.7-15.3 5.8 6 15.9 8.9 25.9 11l.4-2C15.4 80.7 7 74.5 7 63.6c0-7.9-4.8-8.7-5-8.8l-.3 2c.1 0 3.2.7 3.2 6.7 0 1.9.3 3.6.7 5.2.1 1.8.4 3.5 1.1 5.2 1.5 13.5 20.6 23.4 43.8 23.4 26 0 44.3-12.5 47-24.7l-2-.2z"></path></g><!----></svg>